<?xml version="1.0" encoding="iso-8859-1"?>
<!-- Generator: Adobe Illustrator 19.0.0, SVG Export Plug-In . SVG Version: 6.00 Build 0)  -->
<svg version="1.1" id="Layer_1" xmlns="http://www.w3.org/2000/svg" xmlns:xlink="http://www.w3.org/1999/xlink" x="0px" y="0px"
	 viewBox="0 0 512 512" style="enable-background:new 0 0 512 512;" xml:space="preserve">
<path style="fill:#1E0478;" d="M465.419,48.243c6.663,0,12.049,5.386,12.049,12.049c0,6.651-5.386,12.049-12.049,12.049h-22.326
	l-15.23,396.392C426.936,492.999,407.188,512,382.897,512H129.102c-24.29,0-44.038-19.001-44.966-43.267L68.907,72.341H46.581
	c-6.663,0-12.049-5.398-12.049-12.049c0-6.663,5.386-12.049,12.049-12.049h137.609v-24.29C184.189,10.747,194.913,0,208.106,0
	h95.788c13.193,0,23.917,10.747,23.917,23.953v24.29H465.419z M403.79,467.805l15.181-395.464H93.028l15.193,395.464
	c0.422,11.266,9.603,20.097,20.881,20.097h253.795C394.175,487.902,403.356,479.071,403.79,467.805z M303.713,48.243V24.098h-95.426
	v24.146H303.713z"/>
<path style="fill:#94E7EF;" d="M418.972,72.341L403.79,467.805c-0.434,11.266-9.615,20.097-20.893,20.097H129.102
	c-11.278,0-20.459-8.832-20.881-20.097L93.028,72.341H418.972z M353.462,182.033c0.12-6.651-5.169-12.145-11.82-12.278
	c-6.627-0.145-12.145,5.157-12.278,11.82l-3.783,196.636c-0.12,6.651,5.169,12.145,11.82,12.278c0.072,0,0.157,0,0.241,0
	c6.542,0,11.916-5.241,12.037-11.82L353.462,182.033z M268.049,378.439V181.804c0-6.651-5.398-12.049-12.049-12.049
	c-6.651,0-12.049,5.398-12.049,12.049v196.636c0,6.651,5.398,12.049,12.049,12.049C262.651,390.488,268.049,385.09,268.049,378.439z
	 M174.599,390.488c6.651-0.133,11.94-5.627,11.808-12.278l-3.771-196.636c-0.133-6.579-5.506-11.82-12.049-11.82
	c-0.072,0-0.157,0-0.229,0c-6.663,0.133-11.952,5.627-11.82,12.278l3.783,196.636c0.12,6.579,5.494,11.82,12.037,11.82
	C174.442,390.488,174.514,390.488,174.599,390.488z"/>
<path style="fill:#1E0478;" d="M341.643,169.755c6.651,0.133,11.94,5.627,11.82,12.278l-3.783,196.636
	c-0.121,6.579-5.494,11.82-12.037,11.82c-0.084,0-0.169,0-0.241,0c-6.651-0.133-11.94-5.627-11.82-12.278l3.783-196.636
	C329.497,174.912,335.016,169.61,341.643,169.755z"/>
<rect x="208.287" y="24.098" style="fill:#94E7EF;" width="95.426" height="24.146"/>
<g>
	<path style="fill:#1E0478;" d="M268.049,181.804v196.636c0,6.651-5.398,12.049-12.049,12.049c-6.651,0-12.049-5.398-12.049-12.049
		V181.804c0-6.651,5.398-12.049,12.049-12.049C262.651,169.755,268.049,175.153,268.049,181.804z"/>
	<path style="fill:#1E0478;" d="M186.406,378.211c0.133,6.651-5.157,12.145-11.808,12.278c-0.084,0-0.157,0-0.241,0
		c-6.542,0-11.916-5.241-12.037-11.82l-3.783-196.636c-0.133-6.651,5.157-12.145,11.82-12.278c0.072,0,0.157,0,0.229,0
		c6.542,0,11.916,5.241,12.049,11.82L186.406,378.211z"/>
</g>
<g>
</g>
<g>
</g>
<g>
</g>
<g>
</g>
<g>
</g>
<g>
</g>
<g>
</g>
<g>
</g>
<g>
</g>
<g>
</g>
<g>
</g>
<g>
</g>
<g>
</g>
<g>
</g>
<g>
</g>
</svg>
